<svg width="1280" height="558" viewBox="0 0 1280 558" fill="none" xmlns="http://www.w3.org/2000/svg">
<path fill-rule="evenodd" clip-rule="evenodd" d="M1208.53 80.5088L1280 110.865V257.865V293V421.865V440L1280 547.865L1208.53 517.509C1138.13 487.153 995.2 426.441 853.333 438.584C779.299 444.92 704.975 471.097 630.663 497.27C562.576 521.25 494.499 545.227 426.667 553.936C284.8 572.149 141.867 523.58 71.4666 499.295L0 475.011V440V349.011V293V185.011V38.0106L71.4667 62.2953C141.867 86.58 284.8 135.149 426.667 116.936C494.499 108.227 562.576 84.2506 630.663 60.2701C704.975 34.0974 779.299 7.9201 853.333 1.58354C995.2 -10.5588 1138.13 50.153 1208.53 80.5088Z" fill="#4BBBFC"/>
</svg>
