<svg width="1277" height="558" viewBox="0 0 1277 558" fill="none" xmlns="http://www.w3.org/2000/svg">
<path fill-rule="evenodd" clip-rule="evenodd" d="M1205.53 80.5088L1277 110.865V257.865V293V421.865V440L1277 547.865L1205.53 517.509C1135.13 487.153 992.2 426.441 850.333 438.584C776.299 444.92 701.975 471.097 627.663 497.27C559.576 521.25 491.499 545.227 423.667 553.936C281.8 572.149 138.867 523.58 68.4666 499.295L-3 475.011V440V349.011V293V185.011V38.0106L68.4667 62.2953C138.867 86.58 281.8 135.149 423.667 116.936C491.499 108.227 559.576 84.2506 627.663 60.2701C701.975 34.0974 776.299 7.9201 850.333 1.58354C992.2 -10.5588 1135.13 50.153 1205.53 80.5088Z" fill="#E62154"/>
</svg>
