<svg width="50" height="50" viewBox="0 0 50 50" fill="none" xmlns="http://www.w3.org/2000/svg">
<rect width="50" height="50" rx="25" fill="url(#paint0_linear_490_559)"/>
<path d="M24.9997 11.0101C29.5547 11.0101 30.0947 11.0251 31.8947 11.1101C33.5597 11.1851 34.4647 11.4651 35.0647 11.7001C35.8597 12.0101 36.4297 12.3801 37.0247 12.9751C37.6197 13.5701 37.9897 14.1401 38.2997 14.9351C38.5347 15.5351 38.8097 16.4401 38.8897 18.1051C38.9697 19.9051 38.9897 20.4451 38.9897 25.0001C38.9897 29.5551 38.9747 30.0951 38.8897 31.8951C38.8147 33.5601 38.5347 34.4651 38.2997 35.0651C37.9897 35.8601 37.6197 36.4301 37.0247 37.0251C36.4297 37.6201 35.8597 37.9901 35.0647 38.3001C34.4647 38.5351 33.5597 38.8101 31.8947 38.8901C30.0947 38.9701 29.5547 38.9901 24.9997 38.9901C20.4447 38.9901 19.9047 38.9751 18.1047 38.8901C16.4397 38.8151 15.5347 38.5351 14.9347 38.3001C14.1397 37.9901 13.5697 37.6201 12.9747 37.0251C12.3797 36.4301 12.0097 35.8601 11.6997 35.0651C11.4647 34.4651 11.1897 33.5601 11.1097 31.8951C11.0297 30.0951 11.0097 29.5551 11.0097 25.0001C11.0097 20.4451 11.0247 19.9051 11.1097 18.1051C11.1847 16.4401 11.4647 15.5351 11.6997 14.9351C12.0097 14.1401 12.3797 13.5701 12.9747 12.9751C13.5697 12.3801 14.1397 12.0101 14.9347 11.7001C15.5347 11.4651 16.4397 11.1901 18.1047 11.1101C19.9047 11.0251 20.4447 11.0101 24.9997 11.0101ZM24.9997 7.93506C20.3647 7.93506 19.7847 7.95506 17.9647 8.04006C16.1497 8.12506 14.9097 8.41006 13.8197 8.83506C12.6997 9.26506 11.7447 9.85006 10.7997 10.8001C9.84969 11.7501 9.26969 12.7001 8.82969 13.8251C8.40969 14.9101 8.11969 16.1501 8.03469 17.9701C7.94969 19.7901 7.92969 20.3701 7.92969 25.0051C7.92969 29.6401 7.94969 30.2201 8.03469 32.0401C8.11969 33.8551 8.40469 35.0951 8.82969 36.1851C9.26469 37.3001 9.84969 38.2551 10.7997 39.2001C11.7497 40.1501 12.6997 40.7301 13.8247 41.1701C14.9097 41.5901 16.1497 41.8801 17.9697 41.9651C19.7897 42.0501 20.3697 42.0701 25.0047 42.0701C29.6397 42.0701 30.2197 42.0501 32.0397 41.9651C33.8547 41.8801 35.0947 41.5951 36.1847 41.1701C37.2997 40.7351 38.2547 40.1501 39.1997 39.2001C40.1497 38.2501 40.7297 37.3001 41.1697 36.1751C41.5897 35.0901 41.8797 33.8501 41.9647 32.0301C42.0497 30.2101 42.0697 29.6301 42.0697 24.9951C42.0697 20.3601 42.0497 19.7801 41.9647 17.9601C41.8797 16.1451 41.5947 14.9051 41.1697 13.8151C40.7347 12.7001 40.1497 11.7451 39.1997 10.8001C38.2497 9.85006 37.2997 9.27006 36.1747 8.83006C35.0897 8.41006 33.8497 8.12006 32.0297 8.03506C30.2147 7.95506 29.6347 7.93506 24.9997 7.93506Z" fill="white"/>
<path d="M25.0004 16.2351C20.1604 16.2351 16.2354 20.1601 16.2354 25.0001C16.2354 29.8401 20.1604 33.7651 25.0004 33.7651C29.8404 33.7651 33.7654 29.8401 33.7654 25.0001C33.7654 20.1601 29.8404 16.2351 25.0004 16.2351ZM25.0004 30.6901C21.8604 30.6901 19.3104 28.1451 19.3104 25.0001C19.3104 21.8551 21.8604 19.3101 25.0004 19.3101C28.1404 19.3101 30.6904 21.8551 30.6904 25.0001C30.6904 28.1451 28.1404 30.6901 25.0004 30.6901Z" fill="white"/>
<path d="M34.1096 17.9401C35.2418 17.9401 36.1596 17.0223 36.1596 15.8901C36.1596 14.7579 35.2418 13.8401 34.1096 13.8401C32.9774 13.8401 32.0596 14.7579 32.0596 15.8901C32.0596 17.0223 32.9774 17.9401 34.1096 17.9401Z" fill="white"/>
<defs>
<linearGradient id="paint0_linear_490_559" x1="7.32232" y1="42.6777" x2="42.6777" y2="7.32232" gradientUnits="userSpaceOnUse">
<stop stop-color="#FFD521"/>
<stop offset="0.0551048" stop-color="#FFD020"/>
<stop offset="0.1241" stop-color="#FEC01E"/>
<stop offset="0.2004" stop-color="#FCA71B"/>
<stop offset="0.2821" stop-color="#FA8316"/>
<stop offset="0.3681" stop-color="#F85510"/>
<stop offset="0.4563" stop-color="#F51E09"/>
<stop offset="0.5" stop-color="#F30005"/>
<stop offset="0.5035" stop-color="#F20007"/>
<stop offset="0.5966" stop-color="#E1003B"/>
<stop offset="0.6879" stop-color="#D30067"/>
<stop offset="0.7757" stop-color="#C70088"/>
<stop offset="0.8589" stop-color="#BF00A0"/>
<stop offset="0.9357" stop-color="#BB00AF"/>
<stop offset="1" stop-color="#B900B4"/>
</linearGradient>
</defs>
</svg>
