<svg width="50" height="50" viewBox="0 0 50 50" fill="none" xmlns="http://www.w3.org/2000/svg">
<rect width="50" height="50" rx="25" fill="white"/>
<path d="M25 45.7031C36.434 45.7031 45.7031 36.434 45.7031 25C45.7031 13.566 36.434 4.29688 25 4.29688C13.566 4.29688 4.29688 13.566 4.29688 25C4.29688 36.434 13.566 45.7031 25 45.7031Z" fill="url(#paint0_linear_490_560)"/>
<path d="M35.0761 16.2091L31.3803 34.85C31.3803 34.85 30.8627 36.144 29.4393 35.5212L20.9074 28.9787L17.8019 27.4826L12.5776 25.7277C12.5776 25.7277 11.777 25.4446 11.6961 24.8219C11.6152 24.1992 12.6019 23.8676 12.6019 23.8676L33.3697 15.7239C33.3697 15.7158 35.0761 14.9637 35.0761 16.2091Z" fill="white"/>
<path d="M20.2441 34.6398C20.2441 34.6398 19.9934 34.6156 19.6861 33.637C19.3788 32.6585 17.8018 27.4827 17.8018 27.4827L30.3449 19.5168C30.3449 19.5168 31.0728 19.0801 31.0404 19.5168C31.0404 19.5168 31.1698 19.5977 30.7816 19.9536C30.3935 20.3175 20.9315 28.8252 20.9315 28.8252" fill="#D2E4F0"/>
<path d="M24.1742 31.4857L20.8019 34.567C20.8019 34.567 20.535 34.7691 20.252 34.6397L20.8989 28.9221" fill="#B5CFE4"/>
<defs>
<linearGradient id="paint0_linear_490_560" x1="25" y1="4.29688" x2="25" y2="45.5521" gradientUnits="userSpaceOnUse">
<stop stop-color="#41BCE7"/>
<stop offset="1" stop-color="#22A6DC"/>
</linearGradient>
</defs>
</svg>
