<svg width="50" height="50" viewBox="0 0 50 50" fill="none" xmlns="http://www.w3.org/2000/svg">
<rect width="50" height="50" rx="25" fill="#5181B8"/>
<path fill-rule="evenodd" clip-rule="evenodd" d="M40.9495 17.225C41.1795 16.45 40.9495 15.885 39.8445 15.885H36.1995C35.2745 15.885 34.8445 16.375 34.6145 16.915C34.6145 16.915 32.7595 21.435 30.1345 24.37C29.2845 25.22 28.8995 25.49 28.4345 25.49C28.2045 25.49 27.8695 25.22 27.8695 24.445V17.225C27.8695 16.3 27.5995 15.885 26.8295 15.885H21.0995C20.5195 15.885 20.1695 16.315 20.1695 16.725C20.1695 17.605 21.4845 17.805 21.6195 20.28V25.65C21.6195 26.825 21.4045 27.04 20.9445 27.04C19.7095 27.04 16.7045 22.5 14.9195 17.305C14.5695 16.295 14.2195 15.89 13.2895 15.89H9.64453C8.60453 15.89 8.39453 16.38 8.39453 16.92C8.39453 17.885 9.62953 22.675 14.1495 29.01C17.1645 33.335 21.4045 35.68 25.2695 35.68C27.5845 35.68 27.8745 35.16 27.8745 34.26V30.99C27.8745 29.95 28.0945 29.74 28.8295 29.74C29.3695 29.74 30.2995 30.01 32.4595 32.095C34.9295 34.565 35.3395 35.675 36.7295 35.675H40.3745C41.4145 35.675 41.9345 35.155 41.6345 34.125C41.3045 33.1 40.1245 31.615 38.5595 29.85C37.7095 28.845 36.4345 27.765 36.0495 27.225C35.5095 26.53 35.6645 26.22 36.0495 25.605C36.0445 25.605 40.4845 19.35 40.9495 17.225Z" fill="white"/>
</svg>
