<svg width="50" height="50" viewBox="0 0 50 50" fill="none" xmlns="http://www.w3.org/2000/svg">
<rect width="50" height="50" rx="25" fill="#25D366"/>
<path fill-rule="evenodd" clip-rule="evenodd" d="M37.8668 12.1882C34.7668 9.08316 30.6368 7.37316 26.2418 7.36816C17.1868 7.36816 9.81176 14.7382 9.81176 23.7982C9.81176 26.6932 10.5668 29.5232 12.0068 32.0132L9.67676 40.5282L18.3868 38.2432C20.7868 39.5532 23.4868 40.2432 26.2368 40.2432H26.2418C35.2968 40.2432 42.6668 32.8732 42.6718 23.8132C42.6768 19.4232 40.9718 15.2932 37.8668 12.1882ZM26.2468 37.4682H26.2418C23.7918 37.4682 21.3868 36.8082 19.2918 35.5632L18.7918 35.2682L13.6218 36.6232L15.0018 31.5832L14.6768 31.0682C13.3118 28.8932 12.5868 26.3832 12.5868 23.7982C12.5918 16.2682 18.7168 10.1432 26.2518 10.1432C29.9018 10.1432 33.3268 11.5682 35.9068 14.1482C38.4868 16.7282 39.9068 20.1632 39.9018 23.8082C39.9018 31.3432 33.7718 37.4682 26.2468 37.4682ZM33.7368 27.2382C33.3268 27.0332 31.3068 26.0382 30.9318 25.9032C30.5568 25.7682 30.2818 25.6982 30.0068 26.1082C29.7318 26.5182 28.9468 27.4432 28.7068 27.7182C28.4668 27.9932 28.2268 28.0282 27.8168 27.8232C27.4068 27.6182 26.0818 27.1832 24.5168 25.7832C23.2968 24.6932 22.4718 23.3482 22.2318 22.9382C21.9918 22.5282 22.2068 22.3032 22.4118 22.0982C22.5968 21.9132 22.8218 21.6182 23.0268 21.3782C23.2318 21.1382 23.3018 20.9682 23.4368 20.6932C23.5718 20.4182 23.5068 20.1782 23.4018 19.9732C23.2968 19.7682 22.4768 17.7482 22.1368 16.9232C21.8018 16.1232 21.4668 16.2332 21.2118 16.2182C20.9718 16.2082 20.6968 16.2032 20.4268 16.2032C20.1518 16.2032 19.7068 16.3082 19.3318 16.7182C18.9568 17.1282 17.8968 18.1232 17.8968 20.1432C17.8968 22.1632 19.3668 24.1182 19.5718 24.3882C19.7768 24.6632 22.4668 28.8082 26.5868 30.5882C27.5668 31.0132 28.3318 31.2632 28.9268 31.4532C29.9118 31.7682 30.8068 31.7232 31.5118 31.6182C32.3018 31.4982 33.9418 30.6232 34.2818 29.6682C34.6218 28.7082 34.6218 27.8882 34.5218 27.7182C34.4218 27.5482 34.1468 27.4482 33.7368 27.2382Z" fill="white"/>
</svg>
