<svg width="21" height="21" viewBox="0 0 21 21" fill="none" xmlns="http://www.w3.org/2000/svg">
<g clip-path="url(#clip0_5_43)">
<rect width="21" height="21" transform="translate(0.000488281)" fill="white"/>
<path d="M12.688 6.12499H14.8755V8.31247C14.8755 9.03734 15.4631 9.62497 16.188 9.62497C16.9129 9.62497 17.5005 9.03734 17.5005 8.31247V6.12499H19.688C20.4129 6.12499 21.0005 5.53736 21.0005 4.81249C21.0005 4.08762 20.4129 3.49999 19.688 3.49999H17.5005V1.3125C17.5005 0.587631 16.9129 0 16.188 0C15.4632 0 14.8755 0.587631 14.8755 1.3125V3.49999H12.688C11.9632 3.49999 11.3755 4.08762 11.3755 4.81249C11.3755 5.53736 11.9631 6.12499 12.688 6.12499Z" fill="#E62154"/>
<path d="M4.81297 0C2.15512 0 0.000488281 2.15463 0.000488281 4.81249C0.000488281 7.47034 2.15512 9.62497 4.81297 9.62497C7.47083 9.62497 9.62546 7.47034 9.62546 4.81249C9.62259 2.15582 7.46968 0.00291211 4.81297 0ZM4.81297 7.00001C3.60486 7.00001 2.62549 6.02064 2.62549 4.81249C2.62549 3.60433 3.60486 2.625 4.81297 2.625C6.02109 2.625 7.00046 3.60437 7.00046 4.81249C7.00046 6.0206 6.02113 7.00001 4.81297 7.00001Z" fill="#E62154"/>
<path d="M4.81297 11.375C2.15512 11.375 0.000488281 13.5296 0.000488281 16.1875C0.000488281 18.8454 2.15512 21 4.81297 21C7.47083 21 9.62546 18.8454 9.62546 16.1875C9.62259 13.5309 7.46968 11.3779 4.81297 11.375ZM4.81297 18.375C3.60486 18.375 2.62549 17.3956 2.62549 16.1875C2.62549 14.9794 3.60486 14 4.81297 14C6.02109 14 7.00046 14.9794 7.00046 16.1875C7.00046 17.3956 6.02113 18.375 4.81297 18.375Z" fill="#E62154"/>
<path d="M16.188 11.375C13.5302 11.375 11.3755 13.5296 11.3755 16.1875C11.3755 18.8453 13.5301 21 16.188 21C18.8459 21 21.0005 18.8454 21.0005 16.1875C20.9976 13.5309 18.8447 11.3779 16.188 11.375ZM16.188 18.375C14.9799 18.375 14.0005 17.3956 14.0005 16.1875C14.0005 14.9794 14.9799 14 16.188 14C17.3961 14 18.3755 14.9794 18.3755 16.1875C18.3755 17.3957 17.3961 18.375 16.188 18.375Z" fill="#E62154"/>
</g>
<defs>
<clipPath id="clip0_5_43">
<rect width="21" height="21" fill="white" transform="translate(0.000488281)"/>
</clipPath>
</defs>
</svg>
