<svg width="14" height="21" viewBox="0 0 14 21" fill="none" xmlns="http://www.w3.org/2000/svg">
<path d="M6.52107 12.2659C2.79209 12.6029 -0.0488682 15.7538 0.000637177 19.4977V19.6875C0.000637177 20.4124 0.588262 21 1.31312 21C2.03799 21 2.62561 20.4124 2.62561 19.6875V19.4452C2.58615 17.1465 4.28255 15.1862 6.56307 14.8952C8.97038 14.6565 11.1154 16.4145 11.3541 18.8218C11.3683 18.9641 11.3754 19.107 11.3755 19.2501V19.6876C11.3755 20.4124 11.9631 21.0001 12.688 21.0001C13.4129 21.0001 14.0005 20.4124 14.0005 19.6876V19.2501C13.9962 15.3797 10.8552 12.2457 6.98496 12.25C6.83016 12.2502 6.67546 12.2555 6.52107 12.2659Z" fill="#868686"/>
<path d="M7.00056 10.4999C9.90001 10.4999 12.2505 8.1494 12.2505 5.24995C12.2505 2.3505 9.90001 0 7.00056 0C4.10111 0 1.75061 2.3505 1.75061 5.24995C1.75352 8.14825 4.1023 10.497 7.00056 10.4999ZM7.00056 2.62497C8.45028 2.62497 9.62553 3.80022 9.62553 5.24995C9.62553 6.69967 8.45028 7.87492 7.00056 7.87492C5.55083 7.87492 4.37558 6.69967 4.37558 5.24995C4.37558 3.80022 5.55083 2.62497 7.00056 2.62497Z" fill="#868686"/>
</svg>
