<svg width="38" height="32" viewBox="0 0 38 32" fill="none" xmlns="http://www.w3.org/2000/svg">
<path d="M24.6687 16C24.6687 18.64 22.1354 20.7734 19.0004 20.7734C15.8654 20.7734 13.332 18.64 13.332 16C13.332 13.36 15.8654 11.2267 19.0004 11.2267C22.1354 11.2267 24.6687 13.36 24.6687 16Z" stroke="#D9D9D9" stroke-width="2.5" stroke-linecap="round" stroke-linejoin="round"/>
<path d="M19.0007 27.0267C24.5899 27.0267 29.7991 24.2534 33.4249 19.4534C34.8499 17.5734 34.8499 14.4134 33.4249 12.5334C29.7991 7.73335 24.5899 4.96002 19.0007 4.96002C13.4116 4.96002 8.2024 7.73335 4.57656 12.5334C3.15156 14.4134 3.15156 17.5734 4.57656 19.4534C8.2024 24.2534 13.4116 27.0267 19.0007 27.0267Z" stroke="#D9D9D9" stroke-width="2.5" stroke-linecap="round" stroke-linejoin="round"/>
</svg>
