<svg width="38" height="34" viewBox="0 0 38 34" fill="none" xmlns="http://www.w3.org/2000/svg">
<path d="M33.6457 12.9625C29.9882 7.82002 24.6365 4.85919 18.9998 4.85919C16.1815 4.85919 13.4423 5.59586 10.9407 6.97003C8.439 8.35836 6.19067 10.3842 4.354 12.9625C2.77067 15.1867 2.77067 18.7992 4.354 21.0234C8.0115 26.18 13.3632 29.1267 18.9998 29.1267C21.8182 29.1267 24.5573 28.39 27.059 27.0159C29.5607 25.6275 31.809 23.6017 33.6457 21.0234C35.229 18.8134 35.229 15.1867 33.6457 12.9625ZM18.9998 22.7234C15.4532 22.7234 12.6032 20.1592 12.6032 17C12.6032 13.8409 15.4532 11.2767 18.9998 11.2767C22.5465 11.2767 25.3965 13.8409 25.3965 17C25.3965 20.1592 22.5465 22.7234 18.9998 22.7234Z" fill="#00963F"/>
<path d="M18.9998 12.9484C16.514 12.9484 14.4873 14.7617 14.4873 17C14.4873 19.2242 16.514 21.0375 18.9998 21.0375C21.4856 21.0375 23.5281 19.2242 23.5281 17C23.5281 14.7759 21.4856 12.9484 18.9998 12.9484Z" fill="#00963F"/>
</svg>
