<svg width="38" height="34" viewBox="0 0 38 34" fill="none" xmlns="http://www.w3.org/2000/svg">
<path d="M33.6452 12.9625C29.9877 7.81999 24.636 4.85916 18.9993 4.85916C16.181 4.85916 13.4418 5.59583 10.9402 6.96999C8.43852 8.35833 6.19018 10.3842 4.35352 12.9625C2.77018 15.1867 2.77018 18.7992 4.35352 21.0233C8.01102 26.18 13.3627 29.1267 18.9993 29.1267C21.8177 29.1267 24.5568 28.39 27.0585 27.0158C29.5602 25.6275 31.8085 23.6017 33.6452 21.0233C35.2285 18.8133 35.2285 15.1867 33.6452 12.9625ZM18.9993 22.7233C15.4527 22.7233 12.6027 20.1592 12.6027 17C12.6027 13.8408 15.4527 11.2767 18.9993 11.2767C22.546 11.2767 25.396 13.8408 25.396 17C25.396 20.1592 22.546 22.7233 18.9993 22.7233Z" fill="#D9D9D9"/>
<path d="M19.0008 12.9483C16.5149 12.9483 14.4883 14.7617 14.4883 17C14.4883 19.2242 16.5149 21.0375 19.0008 21.0375C21.4866 21.0375 23.5291 19.2242 23.5291 17C23.5291 14.7758 21.4866 12.9483 19.0008 12.9483Z" fill="#D9D9D9"/>
</svg>
