<svg width="38" height="32" viewBox="0 0 38 32" fill="none" xmlns="http://www.w3.org/2000/svg">
<path d="M24.6682 16C24.6682 18.64 22.1349 20.7734 18.9999 20.7734C15.8649 20.7734 13.3315 18.64 13.3315 16C13.3315 13.36 15.8649 11.2267 18.9999 11.2267C22.1349 11.2267 24.6682 13.36 24.6682 16Z" stroke="#00963F" stroke-width="2.5" stroke-linecap="round" stroke-linejoin="round"/>
<path d="M19.0002 27.0267C24.5894 27.0267 29.7986 24.2534 33.4244 19.4534C34.8494 17.5734 34.8494 14.4134 33.4244 12.5334C29.7986 7.73335 24.5894 4.96002 19.0002 4.96002C13.4111 4.96002 8.20191 7.73335 4.57607 12.5334C3.15107 14.4134 3.15107 17.5734 4.57607 19.4534C8.20191 24.2534 13.4111 27.0267 19.0002 27.0267Z" stroke="#00963F" stroke-width="2.5" stroke-linecap="round" stroke-linejoin="round"/>
</svg>
