<svg width="100" height="100" viewBox="0 0 100 100" fill="none" xmlns="http://www.w3.org/2000/svg">
<rect width="100" height="100" rx="20" fill="#E62154"/>
<path fill-rule="evenodd" clip-rule="evenodd" d="M50.5158 64.5812C47.5485 65.3975 45.7623 65.1334 45.167 63.813C44.5764 62.555 44.2979 60.8793 44.3219 58.7667C44.3219 56.63 44.7348 55.3577 45.5799 54.9687C47.2028 54.2245 48.9745 54.3638 50.9143 55.3721C52.8637 56.3516 53.9968 57.7632 54.3089 59.5733C54.7507 62.0749 53.4927 63.7506 50.511 64.5812H50.5158ZM72.3432 54.0901C71.5605 51.7854 69.6784 48.9813 67.5513 47.5601C65.3139 45.8124 62.8603 44.4392 60.1811 43.4357C55.2116 41.5631 50.0789 41.0829 44.7684 42C44.5524 41.5103 44.3891 40.8429 44.2883 39.9978L44.2115 39.5177C45.5463 39.4937 46.8523 39.4697 48.1631 39.4408C52.0138 39.3256 55.5237 39.0999 58.6686 38.7878C61.8136 38.4614 63.5517 38.0196 63.9022 37.453C64.7089 36.1326 65.0354 33.5399 64.8577 29.6795C64.6561 25.8431 64.1135 23.7305 63.2348 23.3368C62.7211 22.9479 61.0838 22.631 58.3277 22.4197C55.5621 22.194 52.3787 22.0692 48.7921 22.0212C45.167 21.9732 41.5179 22.0068 37.8352 22.122C34.1476 22.2469 31.1419 22.4629 28.8132 22.751C27.9682 22.8758 27.3776 23.7833 27.0367 25.483C26.8878 26.1264 26.7726 26.8178 26.7102 27.5477C26.4125 29.4778 26.2108 32.9253 26.086 37.8564C25.9612 43.2388 25.9708 48.8517 26.1244 54.6662C26.2637 60.4904 26.5758 65.724 27.0415 70.367C27.5072 75.0484 28.1746 77.55 29.0293 77.8909C29.9368 78.2798 31.6941 78.5679 34.3013 78.7359C36.9037 78.8848 39.6837 78.976 42.6318 79C45.5895 79 48.3311 78.976 50.8855 78.9232C53.4543 78.8464 55.1636 78.7599 56.0567 78.6735C60.2579 78.2702 63.8446 76.7001 66.8119 73.9537C69.7792 71.1736 71.7334 67.8654 72.6361 64.0291C73.4667 60.5432 73.3803 57.235 72.348 54.0901H72.3432Z" fill="white"/>
</svg>
