<svg width="1358" height="291" viewBox="0 0 1358 291" fill="none" xmlns="http://www.w3.org/2000/svg">
<g clip-path="url(#clip0_208_359)">
<path fill-rule="evenodd" clip-rule="evenodd" d="M400.009 121.331C411.933 138.713 418.915 159.673 418.915 182.25C418.915 242.244 369.713 290.867 309.027 290.867C277.463 290.867 249.022 277.717 228.978 256.647C263.004 216.034 312.169 194.365 347.188 183.522C378.881 173.696 400.009 159.583 400.009 134.263V121.331V121.331ZM283.269 270.978C280.642 270.234 279.117 267.527 279.852 264.93C280.605 262.332 283.342 260.825 285.97 261.551C289.369 262.514 292.823 263.259 296.277 263.786C299.859 264.33 303.387 264.639 306.823 264.73C309.56 264.785 311.71 267.037 311.655 269.725C311.6 272.431 309.321 274.556 306.602 274.502C302.579 274.393 298.647 274.066 294.825 273.485C290.93 272.904 287.072 272.068 283.269 270.978V270.978ZM268.185 265.257C265.723 264.076 264.694 261.152 265.87 258.718C267.064 256.284 270.022 255.267 272.484 256.429L273.237 256.793C275.718 257.937 276.765 260.861 275.608 263.313C274.45 265.765 271.492 266.801 269.012 265.656L268.185 265.257Z" fill="#E62154"/>
<path fill-rule="evenodd" clip-rule="evenodd" d="M309.027 16.2017C313.547 16.2017 317.221 12.5508 317.221 8.10084C317.221 3.63266 313.529 0 309.027 0C304.508 0 300.833 3.65083 300.833 8.10084C300.833 12.5508 304.526 16.2017 309.027 16.2017Z" fill="#00B856"/>
<path fill-rule="evenodd" clip-rule="evenodd" d="M358.671 49.3135C363.19 49.3135 366.865 45.6627 366.865 41.2127C366.865 36.7445 363.172 33.1118 358.671 33.1118C354.151 33.1118 350.477 36.7626 350.477 41.2127C350.477 45.6627 354.169 49.3135 358.671 49.3135Z" fill="#FFED00"/>
<path fill-rule="evenodd" clip-rule="evenodd" d="M226.019 77.3397C230.539 77.3397 234.213 80.9905 234.213 85.4405V86.4214C234.654 90.5808 238.255 93.8502 242.591 93.8502C245.237 93.8502 247.607 92.6332 249.26 90.6171C250.179 89.4365 250.804 88.0016 250.969 86.4577V53.1825C250.969 48.7143 254.662 45.0817 259.163 45.0817C263.665 45.0817 267.358 48.7325 267.358 53.1825V79.5738C267.358 120.859 268.184 134.354 237.686 173.169C233.956 177.529 215.124 201.014 205.533 218.85C201.399 207.407 199.14 195.092 199.14 182.251C199.14 159.819 206.029 138.986 217.806 121.676V85.4405C217.806 80.9724 221.499 77.3397 226.001 77.3397H226.019ZM226.019 66.4781C230.539 66.4781 234.213 62.8272 234.213 58.3772C234.213 53.9272 230.52 50.2764 226.019 50.2764C221.518 50.2764 217.825 53.9272 217.825 58.3772C217.825 62.8272 221.518 66.4781 226.019 66.4781Z" fill="#4BBBFC"/>
<path d="M93.8095 236.395C82.4552 239.483 75.6205 238.484 73.3423 233.489C71.0824 228.73 70.0168 222.391 70.1087 214.399C70.1087 206.317 71.6887 201.504 74.9223 200.032C81.1323 197.217 87.9119 197.744 95.3344 201.558C102.794 205.263 107.13 210.603 108.324 217.451C110.014 226.914 105.201 233.253 93.7911 236.395H93.8095ZM749.036 270.996C752.839 272.068 756.697 272.903 760.592 273.503C764.414 274.084 768.346 274.429 772.369 274.52C775.107 274.575 777.367 272.449 777.422 269.743C777.477 267.037 775.327 264.803 772.59 264.748C769.154 264.657 765.626 264.349 762.044 263.804C758.571 263.277 755.136 262.532 751.737 261.57C749.109 260.825 746.353 262.332 745.619 264.948C744.865 267.545 746.39 270.27 749.036 270.996V270.996ZM733.952 265.275C734.228 265.402 734.503 265.529 734.76 265.656C737.222 266.819 740.18 265.783 741.356 263.35C742.532 260.916 741.485 257.991 739.023 256.829C738.766 256.702 738.508 256.575 738.251 256.448C735.789 255.267 732.831 256.302 731.637 258.736C730.443 261.17 731.49 264.094 733.952 265.275V265.275ZM177.35 196.69C174.356 187.972 167.153 177.364 159.014 171.988C150.453 165.377 141.064 160.182 130.794 156.386C111.778 149.302 92.1376 147.486 71.8174 150.955C70.9906 149.102 70.3659 146.578 69.9801 143.381L69.6861 141.565C74.7937 141.474 79.7911 141.383 84.8069 141.274C99.5418 140.838 112.972 139.984 125.006 138.804C137.041 137.569 143.691 135.898 145.033 133.754C148.119 128.759 149.369 118.951 148.689 104.348C147.917 89.8355 145.841 81.8436 142.479 80.3542C140.513 78.883 134.248 77.6842 123.702 76.885C113.119 76.0314 100.938 75.5591 87.2137 75.3593C73.3423 75.1777 59.379 75.3048 45.2871 75.7407C31.1769 76.213 19.6756 77.0303 10.7648 78.1201C7.5312 78.5924 5.27135 82.0252 3.98526 88.4551C3.41571 90.8889 2.97476 93.5045 2.73592 96.2653C1.57843 103.603 0.806779 116.626 0.329089 135.298C-0.148602 155.659 -0.111857 176.892 0.47607 198.888C1.00888 220.92 2.20311 240.718 3.98526 258.282C5.76741 275.991 8.32122 285.454 11.5916 286.744C15.064 288.215 21.7884 289.323 31.7648 289.941C41.7228 290.504 52.3606 290.849 63.6415 290.94C74.9591 290.94 85.4499 290.849 95.2242 290.649C105.054 290.358 111.594 290.031 115.012 289.705C131.088 288.179 144.812 282.239 156.167 271.85C167.521 261.333 174.999 248.819 178.453 234.306C181.631 221.12 181.3 208.605 177.35 196.708V196.69ZM540.248 200.831C547.138 214.781 554.156 229.348 561.377 244.478C568.542 259.372 576.02 273.376 583.81 286.453C586.272 290.449 592.041 291.775 601.191 290.358C610.193 288.887 619.435 285.927 628.97 281.604C638.45 277.226 646.681 271.995 653.626 265.856C660.516 259.717 663.07 254.014 661.288 248.674C658.44 240.482 652.855 227.404 644.495 209.368C636.025 191.332 626.931 173.005 617.157 154.442C607.29 135.934 597.847 119.315 588.954 104.511C580.007 89.7991 573.595 81.662 569.737 79.9546C568.046 79.2463 564.206 78.665 558.18 78.2836C552.062 77.8114 545.558 77.6116 538.723 77.6116C531.889 77.6116 525.238 77.7569 519.23 78.1383C513.204 78.5197 509.364 79.1373 507.673 79.9546C503.815 81.7165 497.458 90.3259 488.658 105.747C479.802 121.222 470.708 138.44 461.264 157.476C451.875 176.656 443.204 195.019 435.322 212.692C427.421 230.438 422.516 242.444 420.55 248.674C418.915 253.995 421.707 259.717 428.836 265.856C435.91 271.995 444.288 277.226 453.97 281.604C463.542 285.927 472.931 288.887 482.043 290.358C491.138 291.793 496.925 290.449 499.222 286.453C504.991 276.881 511.495 264.131 518.862 248.238C526.285 232.381 533.395 216.543 540.285 200.831H540.248ZM882.385 199.306C877.516 228.567 863.186 252.179 839.301 270.125C815.472 288.07 787.784 294.445 756.165 289.25C725.739 284.201 701.763 269.888 684.235 246.185C666.763 222.482 660.351 196.218 665.073 167.375C669.5 140.62 682.6 118.17 704.353 99.9888C726.107 81.8073 751.443 73.9607 780.27 76.4854C815.067 79.4824 842.13 92.5236 861.44 115.646C880.787 138.822 887.768 166.721 882.385 199.306V199.306ZM801.453 187.463C802.758 179.471 801.214 172.66 796.879 167.048C792.506 161.435 786.149 157.912 777.771 156.531C769.871 155.205 762.889 156.913 756.881 161.617C750.855 166.285 747.309 172.224 746.151 179.362C744.663 188.026 747.107 195.691 753.519 202.303C759.931 208.969 767.813 211.729 777.201 210.585C783.705 209.968 789.088 207.443 793.424 203.066C797.76 198.743 800.406 193.493 801.472 187.463H801.453ZM1014.58 200.831C1021.47 214.781 1028.49 229.348 1035.71 244.478C1042.87 259.372 1050.35 273.376 1058.14 286.453C1060.6 290.449 1066.37 291.775 1075.52 290.358C1084.52 288.887 1093.76 285.927 1103.3 281.604C1112.78 277.226 1121.01 271.995 1127.95 265.856C1134.84 259.717 1137.4 254.014 1135.62 248.674C1132.77 240.482 1127.18 227.404 1118.82 209.368C1110.35 191.332 1101.26 173.005 1091.49 154.442C1081.62 135.934 1072.18 119.315 1063.28 104.511C1054.34 89.7991 1047.92 81.662 1044.07 79.9546C1042.37 79.2463 1038.53 78.665 1032.51 78.2836C1026.39 77.8114 1019.89 77.6116 1013.05 77.6116C1006.22 77.6116 999.566 77.7569 993.559 78.1383C987.551 78.5197 983.692 79.1373 982.002 79.9546C978.144 81.7165 971.787 90.3259 962.986 105.747C954.131 121.222 945.036 138.44 935.593 157.476C926.204 176.656 917.532 195.019 909.65 212.692C901.75 230.438 896.844 242.444 894.879 248.674C893.243 253.995 896.036 259.717 903.165 265.856C910.238 271.995 918.616 277.226 928.299 281.604C937.871 285.927 947.259 288.887 956.372 290.358C965.467 291.793 971.254 290.449 973.551 286.453C979.32 276.881 985.824 264.131 993.191 248.238C1000.61 232.381 1007.72 216.543 1014.61 200.831H1014.58ZM1152.17 286.163C1150.48 284.237 1149.45 282.021 1149.38 279.351C1149.16 270.306 1150.76 256.738 1154.14 238.611C1157.54 220.484 1161.76 201.631 1166.85 182.069C1171.92 162.507 1177.32 144.198 1183.02 127.107C1188.73 109.979 1193.64 97.9181 1197.9 90.9798C1199.57 88.2553 1204.55 85.8395 1212.78 83.6418C1221.01 81.444 1230.13 79.9546 1240.08 79.1191C1250.04 78.2836 1259.63 78.2836 1268.82 79.1736C1278.06 80.0636 1284.51 82.1342 1288.17 85.5489C1293.46 90.4893 1299.63 101.533 1306.85 118.57C1314.03 135.553 1321.07 154.061 1327.94 174.113C1334.8 194.147 1340.95 213.382 1346.43 231.8C1351.88 250.163 1355.5 263.204 1357.26 270.833C1358.55 276.391 1358.13 280.314 1356.16 282.494C1354.2 284.673 1350.72 286.181 1345.86 287.016C1337.59 288.415 1327.32 289.468 1315.04 290.159C1302.77 290.849 1295.05 291.03 1291.99 290.631C1290.74 290.467 1289.62 290.031 1288.57 289.396C1285.19 287.361 1281.94 281.44 1278.8 271.741C1275.64 262.024 1272.55 255.358 1269.55 251.743C1267.77 249.6 1265.42 248.002 1262.48 247.983L1239.37 247.838C1232.15 247.802 1227.44 250.381 1225.26 254.922C1222.45 260.789 1219.23 267.291 1215.68 274.429C1212.12 281.604 1209.44 285.963 1207.78 287.707C1206.88 288.669 1205.67 289.432 1203.98 289.795C1200.14 290.613 1191.03 290.849 1176.68 290.413C1162.33 289.977 1154.23 288.488 1152.17 286.126V286.163ZM1243.59 163.179C1240.49 166.466 1237.38 171.934 1234.35 179.599C1231.32 187.263 1230.22 192.313 1231.03 194.692C1232.42 198.779 1238.54 200.632 1249.33 200.214C1260.05 199.796 1265.93 197.217 1266.85 192.513C1267.42 189.607 1264.57 183.05 1258.38 172.769C1252.21 162.507 1247.27 159.31 1243.61 163.197L1243.59 163.179Z" fill="#E62154"/>
<path fill-rule="evenodd" clip-rule="evenodd" d="M350.458 79.8459V67.8036C350.458 63.3354 354.151 59.7028 358.652 59.7028C363.154 59.7028 366.846 63.3536 366.846 67.8036V85.9669C367.287 90.1263 370.888 93.3957 375.224 93.3957C379.56 93.3957 383.143 90.1445 383.602 85.9851V82.7157C383.602 78.2475 387.295 74.6148 391.797 74.6148C396.298 74.6148 399.991 78.2657 399.991 82.7157V134.263C399.991 159.583 378.844 173.714 347.169 183.522C312.151 194.384 262.985 216.053 228.959 256.629C222.841 250.2 217.495 243.025 213.104 235.251C236.731 204.228 290.875 164.687 303.461 155.151C316.726 145.107 328.944 135.625 338.02 120.659C345.056 109.052 350.458 93.5047 350.458 79.8277V79.8459Z" fill="#FFED00"/>
<path fill-rule="evenodd" clip-rule="evenodd" d="M338.038 120.677C328.962 135.644 316.744 145.125 303.479 155.169C291.151 164.505 238.164 204.973 214.5 237.631C210.201 230.456 206.692 222.755 204.138 214.636C212.479 202.612 233.828 177.71 237.723 173.169C268.222 134.354 267.395 120.859 267.395 79.5735V72.7986C267.395 68.3304 271.088 64.6977 275.589 64.6977C280.091 64.6977 283.783 68.3486 283.783 72.7986V81.7713C283.783 86.4029 287.623 90.199 292.308 90.199C296.993 90.199 300.833 86.4029 300.833 81.7713V35.1642C300.833 30.696 304.526 27.0634 309.028 27.0634C313.529 27.0634 317.222 30.7142 317.222 35.1642V54.8714C317.222 59.4304 321.007 63.1539 325.637 63.1539C330.266 63.1539 334.051 59.4304 334.051 54.8714V54.2357C334.051 49.7675 337.744 46.1348 342.245 46.1348C346.747 46.1348 350.44 49.7857 350.44 54.2357V80.3182C350.44 93.9952 345.056 109.071 338.001 120.677H338.038Z" fill="#00B856"/>
</g>
<defs>
<clipPath id="clip0_208_359">
<rect width="1358" height="291" fill="white"/>
</clipPath>
</defs>
</svg>
