<svg width="162" height="35" viewBox="0 0 162 35" fill="none" xmlns="http://www.w3.org/2000/svg">
<path fill-rule="evenodd" clip-rule="evenodd" d="M47.7173 14.4739C49.1398 16.5475 49.9726 19.048 49.9726 21.7412C49.9726 28.898 44.1032 34.6985 36.8639 34.6985C33.0985 34.6985 29.7056 33.1297 27.3145 30.6163C31.3736 25.7714 37.2386 23.1865 41.4161 21.8929C45.1968 20.7207 47.7173 19.0371 47.7173 16.0167V14.4739ZM33.791 32.3259C33.4776 32.237 33.2957 31.9142 33.3834 31.6043C33.4732 31.2945 33.7998 31.1146 34.1132 31.2013C34.5187 31.3161 34.9307 31.405 35.3428 31.4678C35.7702 31.5328 36.191 31.5697 36.6009 31.5805C36.9274 31.587 37.1839 31.8557 37.1773 32.1763C37.1707 32.4992 36.8989 32.7527 36.5746 32.7462C36.0946 32.7332 35.6255 32.6942 35.1696 32.6249C34.705 32.5555 34.2447 32.4559 33.791 32.3259ZM31.9916 31.6433C31.6979 31.5025 31.5752 31.1536 31.7155 30.8633C31.8579 30.5729 32.2108 30.4516 32.5045 30.5903L32.5944 30.6336C32.8902 30.7701 33.0152 31.119 32.8771 31.4115C32.739 31.704 32.3861 31.8275 32.0903 31.691L31.9916 31.6433Z" fill="white"/>
<path fill-rule="evenodd" clip-rule="evenodd" d="M36.8642 1.93275C37.4034 1.93275 37.8417 1.49723 37.8417 0.966374C37.8417 0.433351 37.4012 0 36.8642 0C36.3251 0 35.8867 0.435518 35.8867 0.966374C35.8867 1.49723 36.3273 1.93275 36.8642 1.93275Z" fill="#00B856"/>
<path fill-rule="evenodd" clip-rule="evenodd" d="M42.7861 5.8827C43.3253 5.8827 43.7636 5.44718 43.7636 4.91633C43.7636 4.3833 43.3231 3.94995 42.7861 3.94995C42.2469 3.94995 41.8086 4.38547 41.8086 4.91633C41.8086 5.44718 42.2491 5.8827 42.7861 5.8827Z" fill="#FFED00"/>
<path fill-rule="evenodd" clip-rule="evenodd" d="M26.9624 9.22609C27.5015 9.22609 27.9399 9.66161 27.9399 10.1925V10.3095C27.9925 10.8057 28.4221 11.1957 28.9393 11.1957C29.2549 11.1957 29.5377 11.0505 29.7349 10.81C29.8445 10.6692 29.919 10.498 29.9388 10.3138V6.3443C29.9388 5.81128 30.3793 5.37793 30.9163 5.37793C31.4532 5.37793 31.8938 5.81345 31.8938 6.3443V9.4926C31.8938 14.4176 31.9924 16.0275 28.3541 20.6579C27.9092 21.1779 25.6627 23.9795 24.5186 26.1073C24.0254 24.7422 23.7559 23.2732 23.7559 21.7413C23.7559 19.0653 24.5778 16.5801 25.9827 14.5151V10.1925C25.9827 9.65944 26.4232 9.22609 26.9602 9.22609H26.9624ZM26.9624 7.93037C27.5015 7.93037 27.9399 7.49485 27.9399 6.964C27.9399 6.43314 27.4993 5.99762 26.9624 5.99762C26.4254 5.99762 25.9849 6.43314 25.9849 6.964C25.9849 7.49485 26.4254 7.93037 26.9624 7.93037Z" fill="#4BBBFC"/>
<path d="M11.1908 28.2003C9.83633 28.5687 9.021 28.4495 8.74923 27.8536C8.47964 27.2859 8.35252 26.5298 8.36348 25.5764C8.36348 24.6122 8.55197 24.038 8.93772 23.8625C9.67852 23.5266 10.4873 23.5895 11.3727 24.0445C12.2626 24.4865 12.7798 25.1235 12.9223 25.9404C13.1239 27.0693 12.5497 27.8255 11.1886 28.2003H11.1908ZM89.3548 32.328C89.8085 32.4558 90.2688 32.5555 90.7334 32.627C91.1893 32.6963 91.6583 32.7375 92.1383 32.7483C92.4649 32.7548 92.7345 32.5013 92.741 32.1785C92.7476 31.8556 92.4912 31.5891 92.1646 31.5826C91.7548 31.5718 91.3339 31.535 90.9065 31.47C90.4923 31.4071 90.0825 31.3183 89.677 31.2034C89.3636 31.1146 89.0348 31.2945 88.9471 31.6065C88.8573 31.9163 89.0392 32.2413 89.3548 32.328ZM87.5554 31.6455C87.5883 31.6606 87.6211 31.6758 87.6518 31.691C87.9455 31.8296 88.2984 31.7061 88.4387 31.4158C88.5789 31.1254 88.454 30.7766 88.1603 30.6379C88.1296 30.6228 88.0989 30.6076 88.0683 30.5924C87.7746 30.4516 87.4217 30.5751 87.2792 30.8654C87.1368 31.1558 87.2617 31.5046 87.5554 31.6455ZM21.1567 23.4638C20.7994 22.4237 19.9402 21.1584 18.9693 20.517C17.948 19.7283 16.828 19.1086 15.6028 18.6558C13.3343 17.8107 10.9914 17.594 8.56731 18.0079C8.46869 17.7869 8.39417 17.4857 8.34814 17.1044L8.31307 16.8877C8.92237 16.8768 9.51853 16.866 10.1169 16.853C11.8746 16.801 13.4768 16.6992 14.9124 16.5583C16.348 16.411 17.1414 16.2116 17.3014 15.956C17.6696 15.3601 17.8186 14.1901 17.7375 12.448C17.6455 10.7168 17.3978 9.76338 16.9967 9.5857C16.7622 9.4102 16.0148 9.26719 14.7568 9.17185C13.4943 9.07001 12.0412 9.01368 10.404 8.98984C8.74923 8.96818 7.08351 8.98334 5.40244 9.03535C3.71919 9.09168 2.34716 9.18919 1.28417 9.31919C0.898419 9.37553 0.628836 9.78504 0.475414 10.5521C0.40747 10.8424 0.354868 11.1544 0.326376 11.4838C0.188296 12.3592 0.0962432 13.9127 0.039258 16.1401C-0.0177272 18.5691 -0.0133438 21.102 0.0567919 23.726C0.120352 26.3542 0.262815 28.716 0.475414 30.8113C0.688013 32.9239 0.992664 34.0527 1.38279 34.2066C1.79703 34.3821 2.59921 34.5143 3.78932 34.5879C4.97725 34.6551 6.24626 34.6963 7.59199 34.7071C8.9421 34.7071 10.1936 34.6963 11.3596 34.6724C12.5322 34.6378 13.3124 34.5988 13.7201 34.5598C15.6379 34.3777 17.2751 33.6692 18.6296 32.4298C19.9841 31.1753 20.8761 29.6824 21.2882 27.9511C21.6673 26.3781 21.6279 24.8852 21.1567 23.466V23.4638ZM64.4479 23.9578C65.2698 25.6219 66.107 27.3596 66.9684 29.1645C67.8232 30.9413 68.7152 32.6118 69.6445 34.1719C69.9382 34.6486 70.6264 34.8068 71.7179 34.6378C72.7918 34.4622 73.8943 34.1091 75.0318 33.5934C76.1627 33.0712 77.1446 32.4472 77.9731 31.7148C78.795 30.9824 79.0997 30.3021 78.8871 29.665C78.5473 28.6878 77.8811 27.1278 76.8838 24.9762C75.8734 22.8246 74.7885 20.6383 73.6225 18.4239C72.4455 16.216 71.319 14.2334 70.2582 12.4675C69.1908 10.7124 68.4259 9.74171 67.9656 9.53803C67.764 9.45353 67.3059 9.38419 66.587 9.33869C65.8572 9.28236 65.0813 9.25852 64.266 9.25852C63.4506 9.25852 62.6572 9.27586 61.9405 9.32136C61.2216 9.36686 60.7636 9.44053 60.5619 9.53803C60.1017 9.74821 59.3433 10.7753 58.2935 12.6148C57.2371 14.4609 56.1521 16.515 55.0256 18.7858C53.9056 21.0739 52.8711 23.2644 51.9309 25.3727C50.9884 27.4896 50.4032 28.9219 50.1687 29.665C49.9736 30.2999 50.3068 30.9824 51.1572 31.7148C52.001 32.4472 53.0004 33.0712 54.1555 33.5934C55.2974 34.1091 56.4174 34.4622 57.5045 34.6378C58.5894 34.8089 59.2798 34.6486 59.5537 34.1719C60.2419 33.03 61.0178 31.509 61.8967 29.613C62.7822 27.7215 63.6304 25.8321 64.4523 23.9578H64.4479ZM105.262 23.7758C104.682 27.2664 102.972 30.0832 100.123 32.224C97.2801 34.3647 93.9772 35.1253 90.2052 34.5056C86.5757 33.9032 83.7155 32.1958 81.6245 29.3682C79.5402 26.5406 78.7753 23.4075 79.3386 19.9666C79.8668 16.775 81.4295 14.0969 84.0245 11.928C86.6195 9.75904 89.6419 8.823 93.0808 9.12418C97.2319 9.4817 100.46 11.0374 102.764 13.7957C105.072 16.5605 105.905 19.8886 105.262 23.7758ZM95.6078 22.3631C95.7634 21.4097 95.5793 20.5972 95.0621 19.9276C94.5405 19.2581 93.7821 18.8378 92.7827 18.6731C91.8402 18.5149 91.0074 18.7186 90.2907 19.2798C89.5718 19.8366 89.1488 20.5452 89.0107 21.3967C88.8332 22.4302 89.1247 23.3446 89.8896 24.1333C90.6545 24.9285 91.5947 25.2579 92.7147 25.1214C93.4906 25.0477 94.1328 24.7465 94.65 24.2243C95.1673 23.7086 95.4829 23.0824 95.61 22.3631H95.6078ZM121.032 23.9578C121.854 25.6219 122.691 27.3596 123.552 29.1645C124.407 30.9413 125.299 32.6118 126.229 34.1719C126.522 34.6486 127.211 34.8068 128.302 34.6378C129.376 34.4622 130.478 34.1091 131.616 33.5934C132.747 33.0712 133.729 32.4472 134.557 31.7148C135.379 30.9824 135.684 30.3021 135.471 29.665C135.131 28.6878 134.465 27.1278 133.468 24.9762C132.458 22.8246 131.373 20.6383 130.207 18.4239C129.03 16.216 127.903 14.2334 126.842 12.4675C125.775 10.7124 125.01 9.74171 124.55 9.53803C124.348 9.45353 123.89 9.38419 123.171 9.33869C122.441 9.28236 121.665 9.25852 120.85 9.25852C120.035 9.25852 119.241 9.27586 118.525 9.32136C117.808 9.36686 117.348 9.44053 117.146 9.53803C116.686 9.74821 115.927 10.7753 114.878 12.6148C113.821 14.4609 112.736 16.515 111.61 18.7858C110.49 21.0739 109.455 23.2644 108.515 25.3727C107.573 27.4896 106.987 28.9219 106.753 29.665C106.558 30.2999 106.891 30.9824 107.741 31.7148C108.585 32.4472 109.585 33.0712 110.74 33.5934C111.881 34.1091 113.001 34.4622 114.089 34.6378C115.173 34.8089 115.864 34.6486 116.138 34.1719C116.826 33.03 117.602 31.509 118.481 29.613C119.366 27.7215 120.214 25.8321 121.036 23.9578H121.032ZM137.446 34.1372C137.244 33.9076 137.122 33.6432 137.113 33.3247C137.087 32.2457 137.277 30.6271 137.68 28.4647C138.086 26.3022 138.59 24.0531 139.197 21.7195C139.802 19.3859 140.446 17.2019 141.126 15.1629C141.807 13.1197 142.393 11.681 142.901 10.8533C143.101 10.5282 143.695 10.2401 144.676 9.97789C145.658 9.71571 146.745 9.53803 147.933 9.43836C149.121 9.33869 150.265 9.33869 151.361 9.44486C152.464 9.55103 153.233 9.79805 153.669 10.2054C154.3 10.7948 155.037 12.1121 155.898 14.1446C156.755 16.1705 157.595 18.3784 158.414 20.7705C159.232 23.1604 159.966 25.455 160.619 27.6521C161.27 29.8427 161.702 31.3985 161.912 32.3085C162.066 32.9715 162.015 33.4395 161.781 33.6995C161.546 33.9596 161.132 34.1394 160.551 34.2391C159.565 34.4059 158.34 34.5316 156.876 34.6139C155.412 34.6963 154.491 34.7179 154.125 34.6703C153.976 34.6508 153.842 34.5988 153.717 34.5229C153.314 34.2802 152.926 33.5739 152.551 32.4168C152.174 31.2576 151.806 30.4624 151.449 30.0312C151.236 29.7756 150.956 29.5849 150.605 29.5827L147.848 29.5654C146.987 29.561 146.425 29.8687 146.165 30.4104C145.829 31.1103 145.446 31.886 145.023 32.7375C144.598 33.5934 144.278 34.1134 144.08 34.3214C143.973 34.4362 143.828 34.5273 143.627 34.5706C143.169 34.6681 142.081 34.6963 140.37 34.6443C138.658 34.5923 137.691 34.4146 137.446 34.1329V34.1372ZM148.352 19.4661C147.982 19.8583 147.611 20.5105 147.25 21.4249C146.888 22.3392 146.756 22.9416 146.853 23.2254C147.019 23.713 147.749 23.934 149.036 23.8841C150.316 23.8343 151.017 23.5266 151.127 22.9654C151.195 22.6188 150.855 21.8366 150.116 20.6102C149.38 19.3859 148.79 19.0046 148.354 19.4683L148.352 19.4661Z" fill="white"/>
<path fill-rule="evenodd" clip-rule="evenodd" d="M41.8073 9.52513V8.08857C41.8073 7.55554 42.2479 7.12219 42.7848 7.12219C43.3218 7.12219 43.7623 7.55771 43.7623 8.08857V10.2553C43.8149 10.7515 44.2445 11.1415 44.7618 11.1415C45.279 11.1415 45.7064 10.7537 45.7612 10.2575V9.86747C45.7612 9.33445 46.2017 8.9011 46.7387 8.9011C47.2757 8.9011 47.7162 9.33662 47.7162 9.86747V16.0167C47.7162 19.0372 45.1936 20.7229 41.415 21.893C37.2375 23.1887 31.3724 25.7736 27.3133 30.6142C26.5835 29.8471 25.9457 28.9913 25.4219 28.0639C28.2405 24.3631 34.6995 19.6461 36.2008 18.5085C37.7833 17.3103 39.2408 16.1792 40.3235 14.3938C41.1629 13.0093 41.8073 11.1545 41.8073 9.52296V9.52513Z" fill="#FFED00"/>
<path fill-rule="evenodd" clip-rule="evenodd" d="M40.3269 14.396C39.2442 16.1814 37.7867 17.3124 36.2042 18.5107C34.7336 19.6244 28.4126 24.4519 25.5897 28.3477C25.0768 27.4919 24.6582 26.5732 24.3535 25.6046C25.3486 24.1702 27.8954 21.1996 28.36 20.6579C31.9983 16.0276 31.8997 14.4177 31.8997 9.49261V8.68441C31.8997 8.15139 32.3402 7.71804 32.8772 7.71804C33.4142 7.71804 33.8547 8.15356 33.8547 8.68441V9.75479C33.8547 10.3073 34.3128 10.7602 34.8717 10.7602C35.4306 10.7602 35.8886 10.3073 35.8886 9.75479V4.19489C35.8886 3.66187 36.3292 3.22852 36.8662 3.22852C37.4031 3.22852 37.8437 3.66403 37.8437 4.19489V6.54582C37.8437 7.08968 38.2952 7.53386 38.8475 7.53386C39.3998 7.53386 39.8513 7.08968 39.8513 6.54582V6.46999C39.8513 5.93696 40.2918 5.50361 40.8288 5.50361C41.3658 5.50361 41.8063 5.93913 41.8063 6.46999V9.58145C41.8063 11.213 41.1642 13.0114 40.3225 14.396H40.3269Z" fill="#00B856"/>
</svg>
