<svg width="28" height="28" viewBox="0 0 28 28" fill="none" xmlns="http://www.w3.org/2000/svg">
<path d="M26.9761 8.45023L25.7386 9.68833L18.313 2.2636L19.5505 1.02539C20.9175 -0.341797 23.1342 -0.341797 24.5014 1.02539L26.9761 3.50084C28.3413 4.86727 28.3413 7.08316 26.9761 8.45023ZM9.65034 23.2987C9.3086 23.6405 9.3086 24.194 9.65034 24.5357C9.99224 24.8794 10.546 24.8794 10.8877 24.5357L24.5014 10.9257L23.2625 9.68746L9.65034 23.2987ZM3.46236 17.1121C3.12045 17.4542 3.12045 18.0074 3.46236 18.3494C3.80409 18.6912 4.35784 18.6912 4.69974 18.3494L18.313 4.73824L17.076 3.50084L3.46236 17.1121ZM19.5489 5.97472L5.93684 19.5866C5.25332 20.2689 5.25505 21.3779 5.93684 22.0615C6.62066 22.7451 7.72792 22.7482 8.41324 22.0596L22.0253 8.45023L19.5489 5.97472ZM8.40972 25.77C7.99117 25.3509 7.78944 24.8198 7.71436 24.2726C7.53645 24.3001 7.35728 24.3256 7.17423 24.3256C6.23928 24.3256 5.36117 23.9602 4.69974 23.2987C4.03832 22.6356 3.67431 21.7587 3.67431 20.8239C3.67431 20.6534 3.69987 20.4873 3.72388 20.3217C3.15819 20.2446 2.63531 19.9968 2.22514 19.5866C2.18579 19.5476 2.17222 19.4945 2.13639 19.4517L0 28L8.52594 25.8657C8.48837 25.8314 8.44584 25.8058 8.40972 25.77Z" fill="#00963F"/>
</svg>
